<svg xmlns="http://www.w3.org/2000/svg" width="36" height="36"><path d="M17.165 24.952a7.067 7.067 0 0 1-5.908-5.042c-.285-.99-.338-2.26-.135-3.256.516-2.535 2.272-4.525 4.684-5.308.812-.263 1.34-.346 2.223-.346 3.354 0 6.167 2.327 6.851 5.67.2.978.146 2.254-.137 3.24a7.14 7.14 0 0 1-2.56 3.7c-1.403 1.045-3.314 1.556-5.018 1.342zm2.142-2.153a5.398 5.398 0 0 0 2.273-1.353c1.158-1.198 1.644-2.992 1.255-4.625-.106-.444-.387-1.13-.583-1.425-.042-.064-.848.697-3.516 3.323-3.156 3.105-3.453 3.413-3.358 3.487.25.193 1.128.555 1.59.655.66.144 1.711.116 2.34-.062zm1.314-9.034c-.21-.163-1.063-.532-1.426-.617-2.317-.543-4.716.601-5.698 2.717-.685 1.476-.602 3.34.208 4.643l.125.201 3.447-3.432c3.133-3.118 3.438-3.439 3.344-3.512z" fill="#fff"/></svg>