<svg xmlns="http://www.w3.org/2000/svg" width="36" height="36"><path d="M9.601 23.231c-.833-.692-1.538-1.327-1.566-1.41-.028-.086.26-.335.639-.558l.69-.405 1.196.248 1.196.248 2.21-1.449 2.212-1.449-1.571-.486c-.865-.267-2.705-.833-4.09-1.257L8 15.942l.84-.842.84-.842 4.316.718c2.374.396 4.748.76 5.276.81l.96.09 3.106-2.012c1.708-1.106 3.243-2.012 3.41-2.012.167 0 .514.211.771.469 1.032 1.034.811 1.257-4.827 4.9a1384.77 1384.77 0 0 0-8.061 5.249c-1.706 1.123-3.195 2.037-3.308 2.03-.114-.013-.888-.578-1.722-1.27z" fill="#fff"/></svg>