<?xml version="1.0" encoding="UTF-8"?>
<svg width="36px" height="36px" viewBox="0 0 36 36" version="1.1" xmlns="http://www.w3.org/2000/svg" xmlns:xlink="http://www.w3.org/1999/xlink">
    <!-- Generator: Sketch 53 (72520) - https://sketchapp.com -->
    <title>airport-guide</title>
    <desc>Created with Sketch.</desc>
    <g id="airport-guide" stroke="none" stroke-width="1" fill="none" fill-rule="evenodd">
        <path d="M17.7692308,24.0826484 C14.8654976,23.7839575 12.5315018,21.7262328 12.0251609,19.08 L9,19.08 L9,16.92 L12.0251609,16.92 C12.5315018,14.2737672 14.8654976,12.2160425 17.7692308,11.9173516 L17.7692308,9 L19.9615385,9 L19.9615385,12.0316512 C22.5198619,12.5718351 24.5117446,14.4997813 24.9748391,16.92 L28,16.92 L28,19.08 L24.9748391,19.08 C24.5117446,21.5002187 22.5198619,23.4281649 19.9615385,23.9683488 L19.9615385,27 L17.7692308,27 L17.7692308,24.0826484 Z M19.0999245,16.5516363 L15.3265106,15.9071742 L15.1521903,16.7100144 L18.5,17.3217059 L15,21.463939 L15.7452417,22 L19.5370846,17.5480497 L21.8364804,17.9654576 L22,17.0546921 L20.1456949,16.7100144 L21.1454683,15.5812672 L20.4834592,15 L19.0999245,16.5516363 Z" id="Combined-Shape" fill="#E7E7E7"></path>
    </g>
</svg>