<?xml version="1.0" encoding="UTF-8" standalone="no"?>
<!-- Created with Inkscape (http://www.inkscape.org/) -->

<svg
   xmlns:dc="http://purl.org/dc/elements/1.1/"
   xmlns:cc="http://creativecommons.org/ns#"
   xmlns:rdf="http://www.w3.org/1999/02/22-rdf-syntax-ns#"
   xmlns:svg="http://www.w3.org/2000/svg"
   xmlns="http://www.w3.org/2000/svg"
   xmlns:sodipodi="http://sodipodi.sourceforge.net/DTD/sodipodi-0.dtd"
   xmlns:inkscape="http://www.inkscape.org/namespaces/inkscape"
   width="36"
   height="36"
   id="svg2"
   version="1.1"
   inkscape:version="0.48.4 r9939"
   inkscape:export-filename="/home/culebron/Work/atc/assets/images/icons/restricted.png"
   inkscape:export-xdpi="90"
   inkscape:export-ydpi="90"
   sodipodi:docname="ban.svg">
  <defs
     id="defs4" />
  <sodipodi:namedview
     id="base"
     pagecolor="#ffffff"
     bordercolor="#666666"
     borderopacity="1.0"
     inkscape:pageopacity="0.0"
     inkscape:pageshadow="2"
     inkscape:zoom="4.5254834"
     inkscape:cx="25.224162"
     inkscape:cy="54.652275"
     inkscape:document-units="px"
     inkscape:current-layer="layer1"
     showgrid="false"
     inkscape:snap-bbox="true"
     inkscape:snap-bbox-midpoints="true"
     inkscape:snap-bbox-edge-midpoints="true"
     inkscape:bbox-nodes="false"
     inkscape:snap-center="true"
     inkscape:snap-object-midpoints="true"
     inkscape:window-width="1366"
     inkscape:window-height="693"
     inkscape:window-x="0"
     inkscape:window-y="25"
     inkscape:window-maximized="1" />
  <metadata
     id="metadata7">
    <rdf:RDF>
      <cc:Work
         rdf:about="">
        <dc:format>image/svg+xml</dc:format>
        <dc:type
           rdf:resource="http://purl.org/dc/dcmitype/StillImage" />
        <dc:title></dc:title>
      </cc:Work>
    </rdf:RDF>
  </metadata>
  <g
     inkscape:label="Layer 1"
     inkscape:groupmode="layer"
     id="layer1"
     transform="translate(0,-1016.3622)">
    <path
       style="fill:#ffffff;fill-opacity:1"
       d="m 17.046003,1042.3076 c -3.198411,-0.4004 -5.863664,-2.675 -6.752014,-5.7625 -0.3258733,-1.1325 -0.3860433,-2.5828 -0.154407,-3.7216 0.589157,-2.8964 2.596237,-5.1706 5.352971,-6.0655 0.927956,-0.3012 1.5322,-0.3953 2.540867,-0.3958 3.832423,0 7.047944,2.6592 7.8297,6.479 0.228854,1.1182 0.166924,2.5774 -0.157196,3.7039 -0.47983,1.6677 -1.536261,3.1945 -2.92623,4.2292 -1.602981,1.1932 -3.786411,1.7771 -5.733691,1.5333 z m 2.447883,-2.4609 c 0.936614,-0.2657 1.934717,-0.8598 2.597757,-1.5462 1.32295,-1.3696 1.879203,-3.4199 1.43411,-5.286 -0.121013,-0.5074 -0.441787,-1.2921 -0.665819,-1.6289 -0.04848,-0.073 -0.969441,0.7975 -4.019318,3.7984 -3.60655,3.5486 -3.945914,3.901 -3.837527,3.9846 0.28603,0.2207 1.28915,0.6342 1.818124,0.7495 0.753536,0.1643 1.955287,0.1322 2.672673,-0.071 z m 1.501791,-10.324 c -0.240234,-0.1864 -1.21512,-0.6084 -1.630021,-0.7056 -2.647493,-0.6209 -5.390047,0.6867 -6.512197,3.105 -0.782574,1.6864 -0.687187,3.8163 0.23765,5.3064 l 0.14276,0.23 3.939784,-3.9223 c 3.580216,-3.5642 3.929033,-3.9304 3.822024,-4.0135 z"
       id="path2996"
       inkscape:connector-curvature="0" />
  </g>
</svg>
