<svg xmlns="http://www.w3.org/2000/svg" width="36" height="36"><path d="M10.441 22.558c-.75-.623-1.384-1.194-1.41-1.27-.024-.076.234-.3.576-.502l.62-.364 1.077.223 1.076.224 1.99-1.304 1.99-1.304-1.414-.438c-.778-.24-2.434-.75-3.68-1.132L9 15.998l.756-.758.756-.758 3.885.647c2.136.356 4.273.684 4.748.729l.863.08 2.796-1.81c1.537-.996 2.919-1.811 3.07-1.811.15 0 .462.19.694.422.928.93.73 1.132-4.345 4.41-2.455 1.587-5.72 3.712-7.255 4.724-1.536 1.01-2.875 1.833-2.977 1.827-.103-.018-.8-.52-1.55-1.143z" fill="#fff"/></svg>