<?xml version="1.0" encoding="UTF-8" standalone="no"?>
<!-- Generator: Adobe Illustrator 16.0.0, SVG Export Plug-In . SVG Version: 6.00 Build 0)  -->

<svg
   xmlns:dc="http://purl.org/dc/elements/1.1/"
   xmlns:cc="http://creativecommons.org/ns#"
   xmlns:rdf="http://www.w3.org/1999/02/22-rdf-syntax-ns#"
   xmlns:svg="http://www.w3.org/2000/svg"
   xmlns="http://www.w3.org/2000/svg"
   xmlns:sodipodi="http://sodipodi.sourceforge.net/DTD/sodipodi-0.dtd"
   xmlns:inkscape="http://www.inkscape.org/namespaces/inkscape"
   version="1.1"
   id="Capa_1"
   x="0px"
   y="0px"
   width="36"
   height="36"
   viewBox="0 0 35.999999 35.999999"
   xml:space="preserve"
   inkscape:version="0.48.4 r9939"
   sodipodi:docname="terrain.svg"
   inkscape:export-filename="/home/culebron/Work/atc/assets/images/icons/terrain.png"
   inkscape:export-xdpi="90"
   inkscape:export-ydpi="90"><metadata
     id="metadata3062"><rdf:RDF><cc:Work
         rdf:about=""><dc:format>image/svg+xml</dc:format><dc:type
           rdf:resource="http://purl.org/dc/dcmitype/StillImage" /><dc:title></dc:title><dc:source>http://www.flaticon.com/free-icon/mountain-summit_27798</dc:source><dc:creator><cc:Agent><dc:title>http://www.flaticon.com/authors/ocha</dc:title></cc:Agent></dc:creator></cc:Work></rdf:RDF></metadata><defs
     id="defs3060" /><sodipodi:namedview
     pagecolor="#ffffff"
     bordercolor="#666666"
     borderopacity="1"
     objecttolerance="10"
     gridtolerance="10"
     guidetolerance="10"
     inkscape:pageopacity="0"
     inkscape:pageshadow="2"
     inkscape:window-width="1366"
     inkscape:window-height="693"
     id="namedview3058"
     showgrid="false"
     inkscape:zoom="6.3870446"
     inkscape:cx="-18.161764"
     inkscape:cy="39.768002"
     inkscape:window-x="0"
     inkscape:window-y="25"
     inkscape:window-maximized="1"
     inkscape:current-layer="Capa_1" /><path
     inkscape:connector-curvature="0"
     id="path3026"
     d="M 26.999999,22.999999 H 8.9999998 L 9.8930294,21.450623 12.67328,16.633661 c 0.49223,-0.850957 1.294961,-0.850957 1.78538,0 0,0 0.64567,1.118466 0.723521,1.249278 0.369795,-0.63935 2.340299,-4.054722 2.340299,-4.054722 0.493362,-0.850957 1.29564,-0.850957 1.786512,0 l 3.915434,6.782312 c 0.201645,-0.350341 0.4008,-0.69344 0.552882,-0.963212 0.356216,-0.614001 0.933992,-0.614001 1.291566,0 0.353726,0.616492 0.933992,1.621799 1.290208,2.233537 l 0.640917,1.119145 z"
     style="fill:#ffffff;fill-opacity:1" /><g
     id="g3028"
     transform="translate(0,-43.536002)" /><g
     id="g3030"
     transform="translate(0,-43.536002)" /><g
     id="g3032"
     transform="translate(0,-43.536002)" /><g
     id="g3034"
     transform="translate(0,-43.536002)" /><g
     id="g3036"
     transform="translate(0,-43.536002)" /><g
     id="g3038"
     transform="translate(0,-43.536002)" /><g
     id="g3040"
     transform="translate(0,-43.536002)" /><g
     id="g3042"
     transform="translate(0,-43.536002)" /><g
     id="g3044"
     transform="translate(0,-43.536002)" /><g
     id="g3046"
     transform="translate(0,-43.536002)" /><g
     id="g3048"
     transform="translate(0,-43.536002)" /><g
     id="g3050"
     transform="translate(0,-43.536002)" /><g
     id="g3052"
     transform="translate(0,-43.536002)" /><g
     id="g3054"
     transform="translate(0,-43.536002)" /><g
     id="g3056"
     transform="translate(0,-43.536002)" /></svg>