<?xml version="1.0" encoding="UTF-8" standalone="no"?>
<!-- Created with Inkscape (http://www.inkscape.org/) -->

<svg
   xmlns:dc="http://purl.org/dc/elements/1.1/"
   xmlns:cc="http://creativecommons.org/ns#"
   xmlns:rdf="http://www.w3.org/1999/02/22-rdf-syntax-ns#"
   xmlns:svg="http://www.w3.org/2000/svg"
   xmlns="http://www.w3.org/2000/svg"
   xmlns:sodipodi="http://sodipodi.sourceforge.net/DTD/sodipodi-0.dtd"
   xmlns:inkscape="http://www.inkscape.org/namespaces/inkscape"
   width="36"
   height="36"
   id="svg2"
   version="1.1"
   inkscape:version="0.48.4 r9939"
   inkscape:export-filename="/home/culebron/Work/atc/assets/images/icons/restricted.png"
   inkscape:export-xdpi="90"
   inkscape:export-ydpi="90"
   sodipodi:docname="restricted.svg">
  <defs
     id="defs4" />
  <sodipodi:namedview
     id="base"
     pagecolor="#ffffff"
     bordercolor="#666666"
     borderopacity="1.0"
     inkscape:pageopacity="0.0"
     inkscape:pageshadow="2"
     inkscape:zoom="0.8"
     inkscape:cx="57.207432"
     inkscape:cy="19.468486"
     inkscape:document-units="px"
     inkscape:current-layer="layer1"
     showgrid="false"
     inkscape:snap-bbox="true"
     inkscape:snap-bbox-midpoints="true"
     inkscape:snap-bbox-edge-midpoints="true"
     inkscape:bbox-nodes="false"
     inkscape:snap-center="true"
     inkscape:snap-object-midpoints="true"
     inkscape:window-width="1366"
     inkscape:window-height="693"
     inkscape:window-x="0"
     inkscape:window-y="25"
     inkscape:window-maximized="1" />
  <metadata
     id="metadata7">
    <rdf:RDF>
      <cc:Work
         rdf:about="">
        <dc:format>image/svg+xml</dc:format>
        <dc:type
           rdf:resource="http://purl.org/dc/dcmitype/StillImage" />
        <dc:title></dc:title>
      </cc:Work>
    </rdf:RDF>
  </metadata>
  <g
     inkscape:label="Layer 1"
     inkscape:groupmode="layer"
     id="layer1"
     transform="translate(0,-1016.3622)">
    <path
       style="fill:#ffffff;fill-opacity:1"
       d="m 17.165253,1041.3145 c -2.79861,-0.3503 -5.130706,-2.3406 -5.908013,-5.0422 -0.285139,-0.9909 -0.337787,-2.2599 -0.135106,-3.2564 0.515513,-2.5343 2.271708,-4.5242 4.68385,-5.3074 0.811961,-0.2635 1.340675,-0.3459 2.223258,-0.3463 3.35337,0 6.166951,2.3269 6.850988,5.6692 0.200247,0.9784 0.146058,2.2552 -0.137547,3.2409 -0.419851,1.4593 -1.344228,2.7952 -2.560451,3.7006 -1.402608,1.044 -3.31311,1.5549 -5.016979,1.3416 z m 2.141897,-2.1533 c 0.819537,-0.2325 1.692877,-0.7523 2.273037,-1.3529 1.157582,-1.1984 1.644303,-2.9924 1.254847,-4.6252 -0.105887,-0.444 -0.386564,-1.1306 -0.582592,-1.4253 -0.04242,-0.064 -0.848261,0.6978 -3.516903,3.3236 -3.155731,3.105 -3.452675,3.4133 -3.357836,3.4865 0.250276,0.1931 1.128006,0.5549 1.590858,0.6558 0.659344,0.1438 1.710876,0.1157 2.338589,-0.062 z m 1.314067,-9.0335 c -0.210205,-0.1631 -1.06323,-0.5323 -1.426268,-0.6174 -2.316556,-0.5433 -4.716291,0.6009 -5.698172,2.7169 -0.684753,1.4756 -0.601289,3.3393 0.207943,4.6431 l 0.124915,0.2013 3.447311,-3.4321 c 3.132689,-3.1186 3.437904,-3.4391 3.344271,-3.5118 z"
       id="path2996"
       inkscape:connector-curvature="0" />
  </g>
</svg>
